<svg id="Layer_1" data-name="Layer 1" xmlns="http://www.w3.org/2000/svg" viewBox="0 0 258.58 258.58"><defs><style>.cls-1{fill:#f6f6e3;}.cls-2{fill:#3a3a3c;}.cls-3{fill:#f1b949;}</style></defs><g id="Background"><rect class="cls-1" width="258.58" height="258.58"/></g><g id="Layer_3" data-name="Layer 3"><path class="cls-2" d="M56.68,22.16c12.22-2.49,36.71-4.65,60-4.65,28.33,0,45.76,2.94,60.8,12.12,14.39,8,24.5,22.78,24.5,42.6,0,19-10.6,36.92-33.76,46V119c23.49,6.47,40.93,25.29,40.93,53a58.29,58.29,0,0,1-21.39,45.88c-15.08,12.73-39.9,19.67-80.83,19.67-22.92,0-39.84-1.58-50.26-3.19Zm46.06,82.73h15.07c24.64,0,37.49-10.74,37.49-26.8C155.3,61.68,143.45,53,122.45,53c-10.16,0-15.9.68-19.7,1.52Zm0,95.6c4.46.8,10,.88,17.83.88,21.11,0,39.68-8.58,39.68-31.33,0-21.63-18.44-30.27-41.62-30.29H102.74Z"/><path class="cls-3" d="M80.64,54.72h0a2.47,2.47,0,0,1,2.47,2.47v140a2.48,2.48,0,0,1-2.47,2.48h0a2.48,2.48,0,0,1-2.48-2.48v-140A2.47,2.47,0,0,1,80.64,54.72Z"/><path class="cls-3" d="M80.64,148.45h0a6.83,6.83,0,0,1,6.83,6.84v38.37a6.84,6.84,0,0,1-6.83,6.84h0a6.84,6.84,0,0,1-6.84-6.84V155.29A6.84,6.84,0,0,1,80.64,148.45Z"/></g></svg>